Alegreya Sans-Thin.ufo
<glyph name="percent" format="1">
  <advance width="792"/>
  <unicode hex="0025"/>
  <outline>
    <contour>
      <point x="160" y="516" type="move"/>
    </contour>
    <component base="zero.numr" yOffset="54" yScale="0.92"/>
    <component base="fraction" xOffset="373"/>
    <component base="zero.dnom" xOffset="419" yScale="0.92"/>
  </outline>
</glyph>
<glyph name="period" format="1">
  <advance width="230"/>
  <unicode hex="002E"/>
  <outline>
    <contour>
      <point x="103" y="38"/>
      <point x="95" y="30"/>
      <point x="95" y="18" type="curve" smooth="yes"/>
      <point x="95" y="6"/>
      <point x="103" y="-2"/>
      <point x="115" y="-2" type="curve" smooth="yes"/>
      <point x="127" y="-2"/>
      <point x="135" y="6"/>
      <point x="135" y="18" type="curve" smooth="yes"/>
      <point x="135" y="30"/>
      <point x="127" y="38"/>
      <point x="115" y="38" type="curve" smooth="yes"/>
    </contour>
  </outline>
</glyph>
<glyph name="A" format="1">
  <advance width="554"/>
  <unicode hex="0041"/>
  <outline>
    <contour>
      <point x="273" y="637" type="line"/>
      <point x="19" y="0" type="line" smooth="yes"/>
      <point x="43" y="0" type="line"/>
      <point x="57" y="43" type="line"/>
      <point x="280" y="603" type="line"/>
      <point x="284" y="603" type="line"/>
      <point x="490" y="43" type="line"/>
      <point x="503" y="0" type="line"/>
      <point x="526" y="0" type="line"/>
      <point x="293" y="637" type="line"/>
    </contour>
    <contour>
      <point x="273" y="233" type="line"/>
      <point x="120" y="233" type="line"/>
      <point x="115" y="213" type="line"/>
      <point x="269" y="213" type="line"/>
      <point x="438" y="213" type="line"/>
      <point x="432" y="233" type="line"/>
    </contour>
    <contour>
      <point x="579" y="10" type="move" name="ogonek"/>
    </contour>
    <contour>
      <point x="277" y="637" type="move" name="top"/>
    </contour>
  </outline>
</glyph>
<glyph name="I" format="1">
  <advance width="240"/>
  <unicode hex="0049"/>
  <outline>
    <contour>
      <point x="110" y="637" type="line"/>
      <point x="110" y="195" type="line"/>
      <point x="110" y="0" type="line"/>
      <point x="130" y="0" type="line"/>
      <point x="130" y="195" type="line"/>
      <point x="130" y="637" type="line"/>
    </contour>
    <contour>
      <point x="206" y="10" type="move" name="ogonek"/>
    </contour>
    <contour>
      <point x="120" y="637" type="move" name="top"/>
    </contour>
  </outline>
</glyph>
<glyph name="b" format="1">
  <advance width="501"/>
  <unicode hex="0062"/>
  <outline>
    <contour>
      <point x="221" y="456"/>
      <point x="167" y="430"/>
      <point x="128" y="385" type="curve"/>
      <point x="105" y="385" type="line"/>
      <point x="115" y="339" type="line"/>
      <point x="157" y="401"/>
      <point x="215" y="436"/>
      <point x="276" y="436" type="curve" smooth="yes"/>
      <point x="371" y="436"/>
      <point x="425" y="364"/>
      <point x="425" y="237" type="curve" smooth="yes"/>
      <point x="425" y="95"/>
      <point x="355" y="14"/>
      <point x="233" y="14" type="curve" smooth="yes"/>
      <point x="202" y="14"/>
      <point x="157" y="20"/>
      <point x="112" y="31" type="curve"/>
      <point x="105" y="12" type="line"/>
      <point x="143" y="0"/>
      <point x="190" y="-6"/>
      <point x="233" y="-6" type="curve" smooth="yes"/>
      <point x="368" y="-6"/>
      <point x="445" y="83"/>
      <point x="445" y="237" type="curve" smooth="yes"/>
      <point x="445" y="376"/>
      <point x="383" y="456"/>
      <point x="276" y="456" type="curve" smooth="yes"/>
    </contour>
    <contour>
      <point x="105" y="698" type="line"/>
      <point x="105" y="193" type="line"/>
      <point x="105" y="3" type="line"/>
      <point x="110" y="0" type="line"/>
      <point x="125" y="8" type="line"/>
      <point x="125" y="195" type="line"/>
      <point x="125" y="702" type="line"/>
    </contour>
  </outline>
</glyph>
<glyph name="c" format="1">
  <advance width="386"/>
  <unicode hex="0063"/>
  <outline>
    <contour>
      <point x="126" y="457"/>
      <point x="56" y="365"/>
      <point x="56" y="222" type="curve" smooth="yes"/>
      <point x="56" y="85"/>
      <point x="125" y="-5"/>
      <point x="232" y="-5" type="curve" smooth="yes"/>
      <point x="281" y="-5"/>
      <point x="330" y="13"/>
      <point x="364" y="38" type="curve"/>
      <point x="366" y="56" type="line"/>
      <point x="360" y="58" type="line"/>
      <point x="326" y="32"/>
      <point x="277" y="15"/>
      <point x="233" y="15" type="curve" smooth="yes"/>
      <point x="137" y="15"/>
      <point x="76" y="97"/>
      <point x="76" y="222" type="curve" smooth="yes"/>
      <point x="76" y="353"/>
      <point x="138" y="437"/>
      <point x="233" y="437" type="curve" smooth="yes"/>
      <point x="276" y="437"/>
      <point x="321" y="419"/>
      <point x="349" y="398" type="curve"/>
      <point x="355" y="398" type="line"/>
      <point x="362" y="415" type="line"/>
      <point x="329" y="440"/>
      <point x="279" y="457"/>
      <point x="233" y="457" type="curve" smooth="yes"/>
    </contour>
    <contour>
      <point x="232" y="0" type="move" name="bottom"/>
    </contour>
    <contour>
      <point x="233" y="452" type="move" name="top"/>
    </contour>
  </outline>
</glyph>
<glyph name="k" format="1">
  <advance width="418"/>
  <unicode hex="006B"/>
  <outline>
    <contour>
      <point x="361" y="452" type="line"/>
      <point x="332" y="418" type="line"/>
      <point x="155" y="243" type="line"/>
      <point x="155" y="238" type="line"/>
      <point x="230" y="154"/>
      <point x="309" y="72"/>
      <point x="389" y="-6" type="curve"/>
      <point x="393" y="-7" type="line"/>
      <point x="398" y="-5"/>
      <point x="405" y="-3"/>
      <point x="408" y="1" type="curve"/>
      <point x="408" y="5" type="line"/>
      <point x="331" y="79"/>
      <point x="254" y="159"/>
      <point x="181" y="241" type="curve"/>
      <point x="392" y="452" type="line"/>
    </contour>
    <component base="l"/>
    <contour>
      <point x="238" y="0" type="move" name="bottom"/>
    </contour>
  </outline>
</glyph>
<glyph name="l" format="1">
  <advance width="230"/>
  <unicode hex="006C"/>
  <outline>
    <contour>
      <point x="105" y="698" type="line"/>
      <point x="105" y="195" type="line"/>
      <point x="105" y="0" type="line"/>
      <point x="125" y="0" type="line"/>
      <point x="125" y="195" type="line"/>
      <point x="125" y="702" type="line"/>
    </contour>
    <contour>
      <point x="115" y="0" type="move" name="bottom"/>
    </contour>
    <contour>
      <point x="115" y="680" type="move" name="top"/>
    </contour>
    <contour>
      <point x="210" y="452" type="move" name="topright"/>
    </contour>
  </outline>
</glyph>
<glyph name="m" format="1">
  <advance width="789"/>
  <unicode hex="006D"/>
  <outline>
    <contour>
      <point x="519" y="457"/>
      <point x="460" y="425"/>
      <point x="410" y="370" type="curve"/>
      <point x="395" y="370" type="line"/>
      <point x="409" y="344" type="line"/>
      <point x="459" y="403"/>
      <point x="517" y="437"/>
      <point x="569" y="437" type="curve" smooth="yes"/>
      <point x="638" y="437"/>
      <point x="679" y="394"/>
      <point x="679" y="320" type="curve" smooth="yes"/>
      <point x="677" y="0" type="line"/>
      <point x="697" y="0" type="line"/>
      <point x="699" y="194" type="line"/>
      <point x="699" y="321" type="line" smooth="yes"/>
      <point x="699" y="407"/>
      <point x="652" y="457"/>
      <point x="569" y="457" type="curve" smooth="yes"/>
    </contour>
    <contour>
      <point x="101" y="449" type="line"/>
      <point x="101" y="196" type="line"/>
      <point x="101" y="0" type="line"/>
      <point x="121" y="0" type="line"/>
      <point x="122" y="196" type="line"/>
      <point x="121" y="453" type="line"/>
    </contour>
    <contour>
      <point x="284" y="95" type="move"/>
    </contour>
    <contour>
      <point x="231" y="457"/>
      <point x="175" y="427"/>
      <point x="126" y="374" type="curve"/>
      <point x="120" y="374" type="line"/>
      <point x="121" y="340" type="line"/>
      <point x="171" y="401"/>
      <point x="229" y="437"/>
      <point x="281" y="437" type="curve" smooth="yes"/>
      <point x="350" y="437"/>
      <point x="391" y="394"/>
      <point x="391" y="320" type="curve" smooth="yes"/>
      <point x="389" y="0" type="line"/>
      <point x="409" y="0" type="line"/>
      <point x="411" y="194" type="line"/>
      <point x="411" y="321" type="line" smooth="yes"/>
      <point x="411" y="407"/>
      <point x="364" y="457"/>
      <point x="281" y="457" type="curve" smooth="yes"/>
    </contour>
  </outline>
</glyph>
<glyph name="p" format="1">
  <advance width="497"/>
  <unicode hex="0070"/>
  <outline>
    <contour>
      <point x="217" y="457"/>
      <point x="163" y="431"/>
      <point x="124" y="386" type="curve"/>
      <point x="101" y="386" type="line"/>
      <point x="111" y="340" type="line"/>
      <point x="153" y="402"/>
      <point x="211" y="437"/>
      <point x="272" y="437" type="curve" smooth="yes"/>
      <point x="367" y="437"/>
      <point x="421" y="365"/>
      <point x="421" y="238" type="curve" smooth="yes"/>
      <point x="421" y="96"/>
      <point x="351" y="15"/>
      <point x="229" y="15" type="curve" smooth="yes"/>
      <point x="198" y="15"/>
      <point x="153" y="20"/>
      <point x="108" y="29" type="curve"/>
      <point x="101" y="10" type="line"/>
      <point x="139" y="0"/>
      <point x="186" y="-5"/>
      <point x="229" y="-5" type="curve" smooth="yes"/>
      <point x="364" y="-5"/>
      <point x="441" y="84"/>
      <point x="441" y="238" type="curve" smooth="yes"/>
      <point x="441" y="377"/>
      <point x="379" y="457"/>
      <point x="272" y="457" type="curve" smooth="yes"/>
    </contour>
    <contour>
      <point x="101" y="449" type="line"/>
      <point x="101" y="196" type="line"/>
      <point x="101" y="-185" type="line"/>
      <point x="121" y="-185" type="line"/>
      <point x="121" y="196" type="line"/>
      <point x="121" y="453" type="line"/>
    </contour>
    <contour>
      <point x="121" y="10" type="line"/>
      <point x="121" y="369" type="line"/>
    </contour>
  </outline>
</glyph>
<glyph name="q" format="1">
  <advance width="497"/>
  <unicode hex="0071"/>
  <outline>
    <contour>
      <point x="343" y="449"/>
      <point x="303" y="457"/>
      <point x="264" y="457" type="curve" smooth="yes"/>
      <point x="135" y="457"/>
      <point x="56" y="370"/>
      <point x="56" y="219" type="curve" smooth="yes"/>
      <point x="56" y="76"/>
      <point x="126" y="-5"/>
      <point x="229" y="-5" type="curve" smooth="yes"/>
      <point x="287" y="-5"/>
      <point x="332" y="21"/>
      <point x="373" y="69" type="curve"/>
      <point x="376" y="69" type="line"/>
      <point x="376" y="46" type="line"/>
      <point x="376" y="-185" type="line"/>
      <point x="396" y="-185" type="line"/>
      <point x="396" y="177" type="line"/>
      <point x="396" y="452" type="line"/>
      <point x="392" y="455" type="line"/>
      <point x="376" y="442" type="line"/>
    </contour>
    <contour>
      <point x="299" y="437"/>
      <point x="335" y="431"/>
      <point x="376" y="420" type="curve"/>
      <point x="376" y="174" type="line"/>
      <point x="376" y="101" type="line"/>
      <point x="337" y="46"/>
      <point x="289" y="15"/>
      <point x="230" y="15" type="curve" smooth="yes"/>
      <point x="139" y="15"/>
      <point x="76" y="88"/>
      <point x="76" y="218" type="curve" smooth="yes"/>
      <point x="76" y="357"/>
      <point x="147" y="437"/>
      <point x="267" y="437" type="curve" smooth="yes"/>
    </contour>
  </outline>
</glyph>
<glyph name="r" format="1">
  <advance width="298"/>
  <unicode hex="0072"/>
  <outline>
    <contour>
      <point x="101" y="449" type="line"/>
      <point x="101" y="196" type="line"/>
      <point x="101" y="0" type="line"/>
      <point x="121" y="0" type="line"/>
      <point x="121" y="196" type="line"/>
      <point x="121" y="453" type="line"/>
    </contour>
    <contour>
      <point x="209" y="452"/>
      <point x="166" y="417"/>
      <point x="125" y="342" type="curve"/>
      <point x="119" y="342" type="line"/>
      <point x="119" y="297" type="line"/>
      <point x="166" y="390"/>
      <point x="209" y="432"/>
      <point x="256" y="432" type="curve" smooth="yes"/>
      <point x="263" y="432"/>
      <point x="273" y="431"/>
      <point x="283" y="429" type="curve"/>
      <point x="288" y="431" type="line"/>
      <point x="288" y="450" type="line"/>
      <point x="281" y="451"/>
      <point x="270" y="452"/>
      <point x="261" y="452" type="curve" smooth="yes"/>
    </contour>
    <contour>
      <point x="112" y="0" type="move" name="bottom"/>
    </contour>
    <contour>
      <point x="186" y="452" type="move" name="top"/>
    </contour>
  </outline>
</glyph>
<glyph name="t" format="1">
  <advance width="298"/>
  <unicode hex="0074"/>
  <outline>
    <contour>
      <point x="106" y="560" type="line"/>
      <point x="106" y="222" type="line"/>
      <point x="106" y="112" type="line" smooth="yes"/>
      <point x="106" y="38"/>
      <point x="140" y="-4"/>
      <point x="200" y="-4" type="curve" smooth="yes"/>
      <point x="223" y="-4"/>
      <point x="252" y="5"/>
      <point x="280" y="21" type="curve"/>
      <point x="282" y="39" type="line"/>
      <point x="278" y="42" type="line"/>
      <point x="252" y="25"/>
      <point x="224" y="16"/>
      <point x="200" y="16" type="curve" smooth="yes"/>
      <point x="152" y="16"/>
      <point x="126" y="51"/>
      <point x="126" y="113" type="curve" smooth="yes"/>
      <point x="126" y="563" type="line"/>
      <point x="122" y="566" type="line"/>
    </contour>
    <contour>
      <point x="43" y="452" type="line"/>
      <point x="40" y="436" type="line"/>
      <point x="44" y="432" type="line"/>
      <point x="281" y="432" type="line"/>
      <point x="284" y="448" type="line"/>
      <point x="281" y="452" type="line"/>
    </contour>
    <contour>
      <point x="189" y="0" type="move" name="bottom"/>
    </contour>
    <contour>
      <point x="148" y="226" type="move" name="center"/>
    </contour>
  </outline>
</glyph>
<glyph name="w" format="1">
  <advance width="652"/>
  <unicode hex="0077"/>
  <outline>
    <contour>
      <point x="29" y="450" type="line"/>
      <point x="164" y="0" type="line"/>
      <point x="186" y="0" type="line"/>
      <point x="328" y="416" type="line"/>
      <point x="332" y="416" type="line"/>
      <point x="455" y="0" type="line"/>
      <point x="477" y="0" type="line"/>
      <point x="635" y="452" type="line"/>
      <point x="612" y="452" type="line"/>
      <point x="598" y="409" type="line"/>
      <point x="469" y="32" type="line"/>
      <point x="465" y="32" type="line"/>
      <point x="354" y="409" type="line"/>
      <point x="343" y="452" type="line"/>
      <point x="320" y="452" type="line"/>
      <point x="306" y="409" type="line"/>
      <point x="178" y="32" type="line"/>
      <point x="174" y="32" type="line"/>
      <point x="62" y="409" type="line"/>
      <point x="50" y="454" type="line"/>
    </contour>
    <contour>
      <point x="328" y="452" type="move" name="top"/>
    </contour>
  </outline>
</glyph>
<glyph name="z" format="1">
  <advance width="399"/>
  <unicode hex="007A"/>
  <outline>
    <contour>
      <point x="51" y="435" type="line"/>
      <point x="55" y="431" type="line"/>
      <point x="101" y="432" type="line"/>
      <point x="329" y="432" type="line"/>
      <point x="38" y="16" type="line"/>
      <point x="38" y="-1" type="line"/>
      <point x="65" y="0" type="line"/>
      <point x="298" y="0" type="line"/>
      <point x="355" y="-1" type="line"/>
      <point x="359" y="17" type="line"/>
      <point x="356" y="21" type="line"/>
      <point x="303" y="20" type="line"/>
      <point x="66" y="20" type="line"/>
      <point x="357" y="436" type="line"/>
      <point x="356" y="453" type="line"/>
      <point x="331" y="452" type="line"/>
      <point x="107" y="452" type="line"/>
      <point x="55" y="453" type="line"/>
    </contour>
    <contour>
      <point x="201" y="452" type="move" name="top"/>
    </contour>
  </outline>
</glyph>
<glyph name="logicalnot" format="1">
  <advance width="480"/>
  <unicode hex="00AC"/>
  <outline>
    <contour>
      <point x="37" y="280" type="line"/>
      <point x="35" y="263" type="line"/>
      <point x="38" y="260" type="line"/>
      <point x="396" y="260" type="line"/>
      <point x="396" y="72" type="line"/>
      <point x="399" y="69" type="line"/>
      <point x="416" y="71" type="line"/>
      <point x="416" y="274" type="line"/>
      <point x="410" y="280" type="line"/>
    </contour>
  </outline>
</glyph>
<glyph name="softhyphen" format="1">
  <advance width="311"/>
  <unicode hex="00AD"/>
  <outline>
    <contour>
      <point x="31" y="248" type="line"/>
      <point x="31" y="232" type="line"/>
      <point x="35" y="228" type="line"/>
      <point x="280" y="261" type="line"/>
      <point x="280" y="277" type="line"/>
      <point x="276" y="281" type="line"/>
    </contour>
  </outline>
</glyph>
<glyph name="paragraph" format="1">
  <advance width="447"/>
  <unicode hex="00B6"/>
  <outline>
    <contour>
      <point x="243" y="637" type="line" smooth="yes"/>
      <point x="120" y="637"/>
      <point x="52" y="570"/>
      <point x="52" y="455" type="curve" smooth="yes"/>
      <point x="52" y="336"/>
      <point x="124" y="269"/>
      <point x="245" y="249" type="curve"/>
      <point x="249" y="269" type="line"/>
      <point x="135" y="289"/>
      <point x="72" y="353"/>
      <point x="72" y="455" type="curve" smooth="yes"/>
      <point x="72" y="553"/>
      <point x="131" y="612"/>
      <point x="236" y="617" type="curve"/>
      <point x="307" y="617" type="line"/>
      <point x="307" y="158" type="line"/>
      <point x="307" y="118" type="line" smooth="yes"/>
      <point x="307" y="54"/>
      <point x="271" y="0"/>
      <point x="193" y="-51" type="curve"/>
      <point x="193" y="-57" type="line"/>
      <point x="203" y="-68" type="line"/>
      <point x="288" y="-12"/>
      <point x="327" y="48"/>
      <point x="327" y="122" type="curve" smooth="yes"/>
      <point x="327" y="168" type="line"/>
      <point x="327" y="617" type="line"/>
      <point x="408" y="617" type="line"/>
      <point x="411" y="633" type="line"/>
      <point x="407" y="637" type="line"/>
    </contour>
  </outline>
</glyph>
<glyph name="aogonek" format="1">
  <advance width="442"/>
  <unicode hex="0105"/>
  <outline>
    <contour>
      <point x="381" y="11" type="line"/>
      <point x="299" y="-79"/>
      <point x="280" y="-109"/>
      <point x="280" y="-139" type="curve" smooth="yes"/>
      <point x="280" y="-177"/>
      <point x="309" y="-197"/>
      <point x="339" y="-197" type="curve" smooth="yes"/>
      <point x="371" y="-197"/>
      <point x="397" y="-175"/>
      <point x="419" y="-140" type="curve"/>
      <point x="408" y="-124" type="line"/>
      <point x="406" y="-124" type="line"/>
      <point x="387" y="-157"/>
      <point x="365" y="-177"/>
      <point x="340" y="-177" type="curve" smooth="yes"/>
      <point x="320" y="-177"/>
      <point x="300" y="-165"/>
      <point x="300" y="-137" type="curve" smooth="yes"/>
      <point x="300" y="-111"/>
      <point x="318" y="-83"/>
      <point x="403" y="11" type="curve"/>
    </contour>
    <component base="a"/>
  </outline>
</glyph>
<glyph name="dcroat" format="1">
  <advance width="508"/>
  <unicode hex="0111"/>
  <outline>
    <contour>
      <point x="241" y="581" type="line"/>
      <point x="239" y="564" type="line"/>
      <point x="242" y="561" type="line"/>
      <point x="479" y="561" type="line"/>
      <point x="481" y="578" type="line"/>
      <point x="478" y="581" type="line"/>
    </contour>
    <component base="d"/>
  </outline>
</glyph>
<glyph name="Iogonek" format="1">
  <advance width="240"/>
  <unicode hex="012E"/>
  <outline>
    <contour>
      <point x="110" y="0" type="line"/>
      <point x="59" y="-75"/>
      <point x="31" y="-119"/>
      <point x="31" y="-151" type="curve" smooth="yes"/>
      <point x="31" y="-176"/>
      <point x="49" y="-197"/>
      <point x="79" y="-197" type="curve" smooth="yes"/>
      <point x="106" y="-197"/>
      <point x="124" y="-181"/>
      <point x="140" y="-149" type="curve"/>
      <point x="126" y="-134" type="line"/>
      <point x="124" y="-134" type="line"/>
      <point x="114" y="-161"/>
      <point x="101" y="-177"/>
      <point x="80" y="-177" type="curve" smooth="yes"/>
      <point x="61" y="-177"/>
      <point x="51" y="-165"/>
      <point x="51" y="-150" type="curve" smooth="yes"/>
      <point x="51" y="-126"/>
      <point x="75" y="-83"/>
      <point x="130" y="0" type="curve"/>
    </contour>
    <component base="I"/>
  </outline>
</glyph>
<glyph name="kgreenlandic" format="1">
  <advance width="413"/>
  <unicode hex="0138"/>
  <outline>
    <contour>
      <point x="357" y="452" type="line"/>
      <point x="328" y="418" type="line"/>
      <point x="150" y="243" type="line"/>
      <point x="150" y="238" type="line"/>
      <point x="226" y="154"/>
      <point x="305" y="72"/>
      <point x="385" y="-6" type="curve"/>
      <point x="389" y="-7" type="line"/>
      <point x="394" y="-5"/>
      <point x="400" y="-3"/>
      <point x="403" y="1" type="curve"/>
      <point x="403" y="5" type="line"/>
      <point x="326" y="78"/>
      <point x="248" y="159"/>
      <point x="176" y="241" type="curve"/>
      <point x="387" y="452" type="line"/>
    </contour>
    <component base="dotlessi"/>
    <contour>
      <point x="238" y="0" type="move" name="bottom"/>
    </contour>
  </outline>
</glyph>
<glyph name="lslash" format="1">
  <advance width="230"/>
  <unicode hex="0142"/>
  <outline>
    <contour>
      <point x="121" y="407" type="line"/>
      <point x="110" y="402" type="line"/>
      <point x="2" y="346" type="line"/>
      <point x="7" y="331" type="line"/>
      <point x="12" y="328" type="line"/>
      <point x="110" y="379" type="line"/>
      <point x="121" y="384" type="line"/>
      <point x="231" y="442" type="line"/>
      <point x="226" y="457" type="line"/>
      <point x="221" y="459" type="line"/>
    </contour>
    <component base="l"/>
  </outline>
</glyph>
<glyph name="eng" format="1">
  <advance width="508"/>
  <unicode hex="014B"/>
  <outline>
    <contour>
      <point x="231" y="457"/>
      <point x="174" y="427"/>
      <point x="125" y="374" type="curve"/>
      <point x="119" y="374" type="line"/>
      <point x="120" y="340" type="line"/>
      <point x="170" y="401"/>
      <point x="229" y="437"/>
      <point x="281" y="437" type="curve" smooth="yes"/>
      <point x="351" y="437"/>
      <point x="392" y="394"/>
      <point x="392" y="320" type="curve" smooth="yes"/>
      <point x="392" y="8" type="line" smooth="yes"/>
      <point x="392" y="-83"/>
      <point x="373" y="-125"/>
      <point x="311" y="-175" type="curve"/>
      <point x="311" y="-181" type="line"/>
      <point x="322" y="-192" type="line"/>
      <point x="391" y="-138"/>
      <point x="412" y="-92"/>
      <point x="412" y="12" type="curve" smooth="yes"/>
      <point x="412" y="196" type="line"/>
      <point x="412" y="321" type="line" smooth="yes"/>
      <point x="412" y="407"/>
      <point x="365" y="457"/>
      <point x="281" y="457" type="curve" smooth="yes"/>
    </contour>
    <contour>
      <point x="101" y="449" type="line"/>
      <point x="101" y="196" type="line"/>
      <point x="101" y="0" type="line"/>
      <point x="121" y="0" type="line"/>
      <point x="121" y="196" type="line"/>
      <point x="121" y="453" type="line"/>
    </contour>
  </outline>
</glyph>
<glyph name="uogonek" format="1">
  <advance width="508"/>
  <unicode hex="0173"/>
  <outline>
    <contour>
      <point x="449" y="11" type="line"/>
      <point x="367" y="-79"/>
      <point x="348" y="-109"/>
      <point x="348" y="-139" type="curve" smooth="yes"/>
      <point x="348" y="-177"/>
      <point x="377" y="-197"/>
      <point x="407" y="-197" type="curve" smooth="yes"/>
      <point x="439" y="-197"/>
      <point x="465" y="-175"/>
      <point x="487" y="-140" type="curve"/>
      <point x="476" y="-124" type="line"/>
      <point x="474" y="-124" type="line"/>
      <point x="455" y="-157"/>
      <point x="433" y="-177"/>
      <point x="408" y="-177" type="curve" smooth="yes"/>
      <point x="388" y="-177"/>
      <point x="368" y="-165"/>
      <point x="368" y="-137" type="curve" smooth="yes"/>
      <point x="368" y="-111"/>
      <point x="386" y="-83"/>
      <point x="471" y="11" type="curve"/>
    </contour>
    <component base="u"/>
  </outline>
</glyph>
<glyph name="ohorn" format="1">
  <advance width="487"/>
  <unicode hex="01A1"/>
  <outline>
    <contour>
      <point x="448" y="568"/>
      <point x="444" y="567"/>
      <point x="438" y="563" type="curve"/>
      <point x="436" y="558" type="line"/>
      <point x="458" y="535"/>
      <point x="470" y="510"/>
      <point x="470" y="487" type="curve" smooth="yes"/>
      <point x="470" y="448"/>
      <point x="438" y="422"/>
      <point x="390" y="422" type="curve" smooth="yes"/>
      <point x="337" y="422"/>
      <point x="319" y="457"/>
      <point x="246" y="457" type="curve" smooth="yes"/>
      <point x="129" y="457"/>
      <point x="56" y="368"/>
      <point x="56" y="222" type="curve" smooth="yes"/>
      <point x="56" y="81"/>
      <point x="124" y="-5"/>
      <point x="240" y="-5" type="curve" smooth="yes"/>
      <point x="357" y="-5"/>
      <point x="429" y="84"/>
      <point x="429" y="229" type="curve"/>
      <point x="429" y="308"/>
      <point x="410" y="364"/>
      <point x="369" y="406" type="curve"/>
      <point x="442" y="398"/>
      <point x="490" y="432"/>
      <point x="490" y="492" type="curve" smooth="yes"/>
      <point x="490" y="535"/>
      <point x="463" y="568"/>
      <point x="451" y="568" type="curve" smooth="yes"/>
    </contour>
    <contour>
      <point x="348" y="437"/>
      <point x="409" y="359"/>
      <point x="409" y="230" type="curve" smooth="yes"/>
      <point x="409" y="96"/>
      <point x="344" y="15"/>
      <point x="240" y="15" type="curve" smooth="yes"/>
      <point x="137" y="15"/>
      <point x="76" y="93"/>
      <point x="76" y="222" type="curve" smooth="yes"/>
      <point x="76" y="356"/>
      <point x="141" y="437"/>
      <point x="245" y="437" type="curve" smooth="yes"/>
    </contour>
    <contour>
      <point x="243" y="452" type="move" name="top"/>
    </contour>
  </outline>
</glyph>
<glyph name="uhorn" format="1">
  <advance width="512"/>
  <unicode hex="01B0"/>
  <outline>
    <contour>
      <point x="452" y="598"/>
      <point x="448" y="597"/>
      <point x="442" y="593" type="curve"/>
      <point x="440" y="588" type="line"/>
      <point x="464" y="563"/>
      <point x="474" y="537"/>
      <point x="474" y="518" type="curve" smooth="yes"/>
      <point x="474" y="484"/>
      <point x="448" y="463"/>
      <point x="391" y="452" type="curve" smooth="yes"/>
      <point x="375" y="449" type="line"/>
      <point x="375" y="108" type="line"/>
      <point x="319" y="45"/>
      <point x="264" y="16"/>
      <point x="211" y="16" type="curve" smooth="yes"/>
      <point x="147" y="16"/>
      <point x="110" y="58"/>
      <point x="110" y="133" type="curve" smooth="yes"/>
      <point x="110" y="453" type="line"/>
      <point x="90" y="449" type="line"/>
      <point x="90" y="211" type="line"/>
      <point x="90" y="132" type="line" smooth="yes"/>
      <point x="90" y="44"/>
      <point x="133" y="-4"/>
      <point x="208" y="-4" type="curve" smooth="yes"/>
      <point x="263" y="-4"/>
      <point x="317" y="22"/>
      <point x="371" y="79" type="curve"/>
      <point x="375" y="79" type="line"/>
      <point x="375" y="20"/>
      <point x="394" y="-3"/>
      <point x="430" y="-3" type="curve" smooth="yes"/>
      <point x="447" y="-3"/>
      <point x="462" y="2"/>
      <point x="475" y="11" type="curve"/>
      <point x="479" y="29" type="line"/>
      <point x="473" y="32" type="line"/>
      <point x="461" y="22"/>
      <point x="444" y="17"/>
      <point x="431" y="17" type="curve" smooth="yes"/>
      <point x="406" y="17"/>
      <point x="395" y="36"/>
      <point x="395" y="79" type="curve" smooth="yes"/>
      <point x="395" y="435" type="line"/>
      <point x="463" y="449"/>
      <point x="494" y="477"/>
      <point x="494" y="523" type="curve" smooth="yes"/>
      <point x="494" y="565"/>
      <point x="467" y="598"/>
      <point x="455" y="598" type="curve" smooth="yes"/>
    </contour>
    <contour>
      <point x="246" y="452" type="move" name="top"/>
    </contour>
  </outline>
</glyph>
<glyph name="Aringacute" format="1">
  <advance width="554"/>
  <unicode hex="01FA"/>
  <outline>
    <contour>
      <point x="272" y="634" type="line"/>
      <point x="19" y="0" type="line" smooth="yes"/>
      <point x="43" y="0" type="line"/>
      <point x="57" y="43" type="line"/>
      <point x="280" y="603" type="line"/>
      <point x="284" y="603" type="line"/>
      <point x="490" y="43" type="line"/>
      <point x="503" y="0" type="line"/>
      <point x="526" y="0" type="line"/>
      <point x="294" y="634" type="line"/>
    </contour>
    <contour>
      <point x="273" y="233" type="line"/>
      <point x="120" y="233" type="line"/>
      <point x="115" y="213" type="line"/>
      <point x="269" y="213" type="line"/>
      <point x="438" y="213" type="line"/>
      <point x="432" y="233" type="line"/>
    </contour>
    <contour>
      <point x="308" y="297" type="move"/>
    </contour>
    <component base="ringacute" xOffset="90" yOffset="108"/>
  </outline>
</glyph>
<glyph name="dotlessj" format="1">
  <advance width="222"/>
  <unicode hex="0237"/>
  <outline>
    <contour>
      <point x="106" y="452" type="line"/>
      <point x="23" y="452" type="line"/>
      <point x="20" y="436" type="line"/>
      <point x="24" y="432" type="line"/>
      <point x="108" y="432" type="line"/>
      <point x="108" y="196" type="line"/>
      <point x="108" y="8" type="line"/>
      <point x="108" y="-83"/>
      <point x="89" y="-126"/>
      <point x="25" y="-176" type="curve"/>
      <point x="25" y="-182" type="line"/>
      <point x="35" y="-192" type="line"/>
      <point x="106" y="-138"/>
      <point x="128" y="-92"/>
      <point x="128" y="12" type="curve"/>
      <point x="128" y="196" type="line"/>
      <point x="128" y="451" type="line"/>
      <point x="126" y="453" type="line"/>
    </contour>
    <contour>
      <point x="103" y="452" type="move" name="top"/>
    </contour>
  </outline>
</glyph>
<glyph name="circumflex" format="1">
  <advance width="390"/>
  <unicode hex="02C6"/>
  <outline>
    <component base="caron" xOffset="390" yOffset="1178" xScale="-1" yScale="-1"/>
    <contour>
      <point x="195" y="452" type="move" name="_top"/>
    </contour>
  </outline>
</glyph>
<glyph name="dotbelowcomb" format="1">
  <advance width="230"/>
  <unicode hex="0323"/>
  <outline>
    <component base="period" yOffset="-126"/>
    <contour>
      <point x="115" y="0" type="move" name="_bottom"/>
    </contour>
  </outline>
</glyph>
<glyph name="emdash" format="1">
  <advance width="972"/>
  <unicode hex="2014"/>
  <outline>
    <contour>
      <point x="-13" y="264" type="line"/>
      <point x="-15" y="247" type="line"/>
      <point x="-12" y="244" type="line"/>
      <point x="985" y="244" type="line"/>
      <point x="987" y="261" type="line"/>
      <point x="984" y="264" type="line"/>
    </contour>
  </outline>
</glyph>
<glyph name="product" format="1">
  <advance width="633"/>
  <unicode hex="220F"/>
  <outline>
    <contour>
      <point x="69" y="637" type="line"/>
      <point x="65" y="621" type="line"/>
      <point x="68" y="617" type="line"/>
      <point x="172" y="617" type="line"/>
      <point x="463" y="617" type="line"/>
      <point x="564" y="617" type="line"/>
      <point x="568" y="633" type="line"/>
      <point x="565" y="637" type="line"/>
    </contour>
    <component base="I" xOffset="7"/>
    <component base="I" xOffset="391"/>
  </outline>
</glyph>
<glyph name="C.ss01" format="1">
  <advance width="467"/>
  <outline>
    <contour>
      <point x="-100" y="471" type="line"/>
      <point x="567" y="471" type="line"/>
      <point x="567" y="491" type="line"/>
      <point x="-100" y="491" type="line"/>
    </contour>
    <contour>
      <point x="-100" y="0" type="line"/>
      <point x="567" y="0" type="line"/>
      <point x="567" y="20" type="line"/>
      <point x="-100" y="20" type="line"/>
    </contour>
    <contour>
      <point x="137" y="489"/>
      <point x="61" y="401"/>
      <point x="61" y="244" type="curve" smooth="yes"/>
      <point x="61" y="88"/>
      <point x="133" y="1"/>
      <point x="267" y="1" type="curve" smooth="yes"/>
      <point x="317" y="1"/>
      <point x="371" y="19"/>
      <point x="416" y="50" type="curve"/>
      <point x="418" y="68" type="line"/>
      <point x="412" y="70" type="line"/>
      <point x="370" y="38"/>
      <point x="317" y="20"/>
      <point x="266" y="20" type="curve" smooth="yes"/>
      <point x="147" y="20"/>
      <point x="81" y="99"/>
      <point x="81" y="244" type="curve" smooth="yes"/>
      <point x="81" y="390"/>
      <point x="149" y="471"/>
      <point x="275" y="471" type="curve" smooth="yes"/>
      <point x="323" y="471"/>
      <point x="369" y="455"/>
      <point x="405" y="428" type="curve"/>
      <point x="411" y="428" type="line"/>
      <point x="417" y="446" type="line"/>
      <point x="377" y="473"/>
      <point x="325" y="489"/>
      <point x="275" y="489" type="curve" smooth="yes"/>
    </contour>
    <contour>
      <point x="260" y="5" type="move" name="bottom"/>
    </contour>
    <contour>
      <point x="256" y="486" type="move" name="top"/>
    </contour>
  </outline>
</glyph>
<glyph name="M.ss01" format="1">
  <advance width="678"/>
  <outline>
    <contour>
      <point x="-100" y="491" type="line"/>
      <point x="-100" y="471" type="line"/>
      <point x="778" y="471" type="line"/>
      <point x="778" y="491" type="line"/>
    </contour>
    <contour>
      <point x="-100" y="20" type="line"/>
      <point x="-100" y="0" type="line"/>
      <point x="778" y="0" type="line"/>
      <point x="778" y="20" type="line"/>
    </contour>
    <contour>
      <point x="514" y="488" type="line"/>
      <point x="484" y="423" type="line"/>
      <point x="338" y="107" type="line"/>
      <point x="335" y="107" type="line"/>
      <point x="196" y="415" type="line"/>
      <point x="165" y="488" type="line"/>
      <point x="142" y="488" type="line"/>
      <point x="87" y="11" type="line"/>
      <point x="107" y="11" type="line"/>
      <point x="123" y="158" type="line"/>
      <point x="157" y="446" type="line"/>
      <point x="160" y="446" type="line"/>
      <point x="325" y="79" type="line"/>
      <point x="348" y="79" type="line"/>
      <point x="516" y="446" type="line"/>
      <point x="520" y="446" type="line"/>
      <point x="554" y="157" type="line"/>
      <point x="570" y="11" type="line"/>
      <point x="589" y="11" type="line"/>
      <point x="536" y="488" type="line"/>
    </contour>
  </outline>
</glyph>
<glyph name="ampersand.sc" format="1">
  <advance width="786"/>
  <outline>
    <contour>
      <point x="626" y="711" type="line"/>
      <point x="532" y="501"/>
      <point x="308" y="309"/>
      <point x="71" y="231" type="curve"/>
      <point x="78" y="212" type="line"/>
      <point x="316" y="289"/>
      <point x="539" y="479"/>
      <point x="638" y="691" type="curve"/>
      <point x="636" y="699"/>
      <point x="634" y="704"/>
      <point x="630" y="711" type="curve"/>
    </contour>
    <contour>
      <point x="136" y="495"/>
      <point x="56" y="400"/>
      <point x="56" y="262" type="curve" smooth="yes"/>
      <point x="56" y="99"/>
      <point x="158" y="-10"/>
      <point x="312" y="-10" type="curve" smooth="yes"/>
      <point x="495" y="-10"/>
      <point x="611" y="112"/>
      <point x="602" y="295" type="curve"/>
      <point x="596" y="299" type="line" smooth="yes"/>
      <point x="582" y="295" type="line"/>
      <point x="591" y="125"/>
      <point x="483" y="11"/>
      <point x="312" y="11" type="curve" smooth="yes"/>
      <point x="170" y="11"/>
      <point x="76" y="111"/>
      <point x="76" y="262" type="curve" smooth="yes"/>
      <point x="76" y="390"/>
      <point x="145" y="475"/>
      <point x="232" y="475" type="curve" smooth="yes"/>
      <point x="278" y="475"/>
      <point x="310" y="452"/>
      <point x="312" y="416" type="curve" smooth="yes"/>
      <point x="314" y="392"/>
      <point x="308" y="351"/>
      <point x="261" y="318" type="curve"/>
      <point x="293" y="330" type="line"/>
      <point x="324" y="355"/>
      <point x="333" y="392"/>
      <point x="333" y="414" type="curve" smooth="yes"/>
      <point x="333" y="462"/>
      <point x="292" y="495"/>
      <point x="231" y="495" type="curve" smooth="yes"/>
    </contour>
    <contour>
      <point x="399" y="226" type="line"/>
      <point x="404" y="228" type="line"/>
      <point x="423" y="281"/>
      <point x="454" y="305"/>
      <point x="500" y="305" type="curve"/>
      <point x="548" y="305"/>
      <point x="666" y="268"/>
      <point x="726" y="268" type="curve"/>
      <point x="785" y="272"/>
      <point x="813" y="299"/>
      <point x="838" y="357" type="curve"/>
      <point x="825" y="367" type="line"/>
      <point x="820" y="365" type="line"/>
      <point x="801" y="312"/>
      <point x="770" y="288"/>
      <point x="724" y="288" type="curve" smooth="yes"/>
      <point x="666" y="288"/>
      <point x="549" y="325"/>
      <point x="498" y="325" type="curve"/>
      <point x="439" y="321"/>
      <point x="411" y="294"/>
      <point x="386" y="236" type="curve"/>
    </contour>
  </outline>
</glyph>
<glyph name="b.sups" format="1">
  <advance width="341"/>
  <outline>
    <contour>
      <point x="155" y="643"/>
      <point x="120" y="626"/>
      <point x="94" y="597" type="curve"/>
      <point x="79" y="597" type="line"/>
      <point x="85" y="565" type="line"/>
      <point x="112" y="602"/>
      <point x="148" y="623"/>
      <point x="187" y="623" type="curve" smooth="yes"/>
      <point x="247" y="623"/>
      <point x="281" y="579"/>
      <point x="281" y="501" type="curve" smooth="yes"/>
      <point x="281" y="413"/>
      <point x="237" y="364"/>
      <point x="160" y="364" type="curve" smooth="yes"/>
      <point x="139" y="364"/>
      <point x="108" y="368"/>
      <point x="77" y="377" type="curve"/>
      <point x="73" y="357" type="line"/>
      <point x="99" y="350"/>
      <point x="131" y="346"/>
      <point x="161" y="346" type="curve" smooth="yes"/>
      <point x="250" y="346"/>
      <point x="302" y="403"/>
      <point x="302" y="502" type="curve" smooth="yes"/>
      <point x="302" y="591"/>
      <point x="261" y="643"/>
      <point x="190" y="643" type="curve" smooth="yes"/>
    </contour>
    <contour>
      <point x="71" y="796" type="line"/>
      <point x="71" y="473" type="line"/>
      <point x="71" y="352" type="line"/>
      <point x="75" y="349" type="line"/>
      <point x="92" y="357" type="line"/>
      <point x="92" y="476" type="line"/>
      <point x="93" y="799" type="line"/>
    </contour>
  </outline>
</glyph>
<glyph name="breve.cap" format="1">
  <advance width="390"/>
  <outline>
    <contour>
      <point x="278" y="628" type="line"/>
      <point x="267" y="586"/>
      <point x="238" y="563"/>
      <point x="194" y="563" type="curve" smooth="yes"/>
      <point x="150" y="563"/>
      <point x="122" y="586"/>
      <point x="112" y="628" type="curve"/>
      <point x="107" y="628" type="line"/>
      <point x="94" y="617" type="line"/>
      <point x="108" y="569"/>
      <point x="144" y="543"/>
      <point x="194" y="543" type="curve" smooth="yes"/>
      <point x="244" y="543"/>
      <point x="281" y="569"/>
      <point x="296" y="617" type="curve"/>
      <point x="283" y="628" type="line"/>
    </contour>
    <contour>
      <point x="195" y="452" type="move" name="_top"/>
    </contour>
  </outline>
</glyph>
<glyph name="brevehookabove" format="1">
  <advance width="390"/>
  <outline>
    <component base="breve.cap" yOffset="-20"/>
    <component base="hookabove" xOffset="4" yOffset="70"/>
    <contour>
      <point x="195" y="452" type="move" name="_top"/>
    </contour>
  </outline>
</glyph>
<glyph name="circumflexgrave" format="1">
  <advance width="390"/>
  <outline>
    <contour>
      <point x="221" y="700" type="line"/>
      <point x="222" y="695" type="line"/>
      <point x="290" y="619" type="line"/>
      <point x="296" y="619" type="line"/>
      <point x="307" y="630" type="line"/>
      <point x="237" y="710" type="line"/>
      <point x="232" y="709" type="line"/>
    </contour>
    <component base="circumflex.cap" yOffset="-20"/>
    <contour>
      <point x="195" y="452" type="move" name="_top"/>
    </contour>
  </outline>
</glyph>
<glyph name="f.f" format="1">
  <advance width="280"/>
  <outline>
    <contour>
      <point x="158" y="692"/>
      <point x="117" y="637"/>
      <point x="117" y="538" type="curve" smooth="yes"/>
      <point x="117" y="190" type="line"/>
      <point x="117" y="0" type="line"/>
      <point x="137" y="0" type="line"/>
      <point x="137" y="192" type="line"/>
      <point x="137" y="538" type="line" smooth="yes"/>
      <point x="137" y="624"/>
      <point x="171" y="672"/>
      <point x="233" y="672" type="curve" smooth="yes"/>
      <point x="261" y="672"/>
      <point x="287" y="668"/>
      <point x="305" y="659" type="curve"/>
      <point x="311" y="659" type="line"/>
      <point x="317" y="679" type="line"/>
      <point x="288" y="688"/>
      <point x="258" y="692"/>
      <point x="233" y="692" type="curve" smooth="yes"/>
    </contour>
    <contour>
      <point x="49" y="452" type="line"/>
      <point x="46" y="436" type="line"/>
      <point x="50" y="432" type="line"/>
      <point x="392" y="432" type="line"/>
      <point x="395" y="448" type="line"/>
      <point x="392" y="452" type="line"/>
    </contour>
    <contour>
      <point x="167" y="0" type="move" name="bottom"/>
    </contour>
    <contour>
      <point x="275" y="749" type="move" name="top"/>
    </contour>
  </outline>
</glyph>
<glyph name="f.l" format="1">
  <advance width="280"/>
  <outline>
    <contour>
      <point x="173" y="712"/>
      <point x="117" y="661"/>
      <point x="117" y="558" type="curve" smooth="yes"/>
      <point x="117" y="190" type="line"/>
      <point x="117" y="0" type="line"/>
      <point x="137" y="0" type="line"/>
      <point x="137" y="192" type="line"/>
      <point x="137" y="558" type="line" smooth="yes"/>
      <point x="137" y="648"/>
      <point x="185" y="692"/>
      <point x="279" y="692" type="curve" smooth="yes"/>
      <point x="317" y="692"/>
      <point x="354" y="685"/>
      <point x="391" y="675" type="curve"/>
      <point x="394" y="677" type="line"/>
      <point x="396" y="696" type="line"/>
      <point x="352" y="706"/>
      <point x="313" y="712"/>
      <point x="277" y="712" type="curve" smooth="yes"/>
    </contour>
    <contour>
      <point x="49" y="452" type="line"/>
      <point x="46" y="436" type="line"/>
      <point x="50" y="432" type="line"/>
      <point x="262" y="432" type="line"/>
      <point x="265" y="448" type="line"/>
      <point x="262" y="452" type="line"/>
    </contour>
  </outline>
</glyph>
<glyph name="hookabove" format="1">
  <advance width="390"/>
  <outline>
    <contour>
      <point x="178" y="677"/>
      <point x="155" y="667"/>
      <point x="133" y="648" type="curve"/>
      <point x="141" y="634" type="line"/>
      <point x="159" y="649"/>
      <point x="179" y="657"/>
      <point x="195" y="657" type="curve" smooth="yes"/>
      <point x="211" y="657"/>
      <point x="221" y="649"/>
      <point x="221" y="637" type="curve" smooth="yes"/>
      <point x="221" y="622"/>
      <point x="203" y="601"/>
      <point x="170" y="579" type="curve"/>
      <point x="192" y="538" type="line"/>
      <point x="209" y="545" type="line"/>
      <point x="193" y="574" type="line"/>
      <point x="224" y="597"/>
      <point x="241" y="619"/>
      <point x="241" y="639" type="curve" smooth="yes"/>
      <point x="241" y="660"/>
      <point x="223" y="677"/>
      <point x="197" y="677" type="curve" smooth="yes"/>
    </contour>
    <contour>
      <point x="195" y="452" type="move" name="_top"/>
    </contour>
  </outline>
</glyph>
<glyph name="macron.i" format="1">
  <advance width="390"/>
  <outline>
    <contour>
      <point x="91" y="607" type="line"/>
      <point x="89" y="590" type="line"/>
      <point x="92" y="587" type="line"/>
      <point x="299" y="587" type="line"/>
      <point x="301" y="604" type="line"/>
      <point x="298" y="607" type="line"/>
    </contour>
    <contour>
      <point x="195" y="452" type="move" name="_top"/>
    </contour>
  </outline>
</glyph>
<glyph name="nine.lf" format="1">
  <advance width="463"/>
  <outline>
    <contour>
      <point x="127" y="594"/>
      <point x="65" y="530"/>
      <point x="65" y="414" type="curve"/>
      <point x="65" y="310"/>
      <point x="123" y="253"/>
      <point x="220" y="253" type="curve" smooth="yes"/>
      <point x="281" y="253"/>
      <point x="334" y="276"/>
      <point x="379" y="313" type="curve"/>
      <point x="385" y="308" type="line"/>
      <point x="391" y="346" type="line"/>
      <point x="342" y="301"/>
      <point x="284" y="273"/>
      <point x="221" y="273" type="curve" smooth="yes"/>
      <point x="136" y="273"/>
      <point x="85" y="323"/>
      <point x="85" y="414" type="curve"/>
      <point x="85" y="517"/>
      <point x="140" y="574"/>
      <point x="240" y="574" type="curve"/>
      <point x="335" y="574"/>
      <point x="387" y="505"/>
      <point x="387" y="382" type="curve"/>
      <point x="387" y="211"/>
      <point x="285" y="80"/>
      <point x="94" y="11" type="curve"/>
      <point x="94" y="7" type="line"/>
      <point x="103" y="-4" type="line"/>
      <point x="107" y="-4" type="line"/>
      <point x="298" y="64"/>
      <point x="407" y="203"/>
      <point x="407" y="382" type="curve"/>
      <point x="407" y="518"/>
      <point x="347" y="594"/>
      <point x="240" y="594" type="curve"/>
    </contour>
  </outline>
</glyph>
<glyph name="o.sups" format="1">
  <advance width="329"/>
  <outline>
    <contour>
      <point x="87" y="644"/>
      <point x="39" y="587"/>
      <point x="39" y="492" type="curve" smooth="yes"/>
      <point x="39" y="401"/>
      <point x="85" y="346"/>
      <point x="162" y="346" type="curve" smooth="yes"/>
      <point x="242" y="346"/>
      <point x="290" y="403"/>
      <point x="290" y="498" type="curve" smooth="yes"/>
      <point x="290" y="589"/>
      <point x="244" y="644"/>
      <point x="167" y="644" type="curve" smooth="yes"/>
    </contour>
    <contour>
      <point x="230" y="625"/>
      <point x="269" y="578"/>
      <point x="269" y="497" type="curve" smooth="yes"/>
      <point x="269" y="413"/>
      <point x="229" y="365"/>
      <point x="162" y="365" type="curve" smooth="yes"/>
      <point x="98" y="365"/>
      <point x="60" y="412"/>
      <point x="60" y="493" type="curve" smooth="yes"/>
      <point x="60" y="577"/>
      <point x="100" y="625"/>
      <point x="166" y="625" type="curve" smooth="yes"/>
    </contour>
    <contour>
      <point x="181" y="290" type="move" name="top"/>
    </contour>
  </outline>
</glyph>
<glyph name="puso" format="1">
  <advance width="105"/>
  <outline>
    <contour>
      <point x="49" y="133" type="move"/>
    </contour>
    <component base="quotesingle" xOffset="-12" yOffset="-496" yScale="1.62"/>
  </outline>
</glyph>
<glyph name="ringacute" format="1">
  <advance width="390"/>
  <outline>
    <component base="ring" yOffset="-20"/>
    <component base="acute.cap" xOffset="-82" yOffset="154" xScale="0.99" yScale="0.99"/>
    <contour>
      <point x="195" y="432" type="move" name="_top"/>
    </contour>
  </outline>
</glyph>
<glyph name="uni0066006A" format="1">
  <advance width="509"/>
  <outline>
    <contour>
      <point x="165" y="705"/>
      <point x="117" y="655"/>
      <point x="117" y="541" type="curve" smooth="yes"/>
      <point x="117" y="452" type="line"/>
      <point x="50" y="452" type="line"/>
      <point x="46" y="436" type="line"/>
      <point x="50" y="432" type="line"/>
      <point x="117" y="432" type="line"/>
      <point x="117" y="190" type="line"/>
      <point x="117" y="0" type="line"/>
      <point x="137" y="0" type="line"/>
      <point x="137" y="192" type="line"/>
      <point x="137" y="432" type="line"/>
      <point x="395" y="432" type="line"/>
      <point x="395" y="196" type="line"/>
      <point x="395" y="8" type="line"/>
      <point x="395" y="-83"/>
      <point x="376" y="-125"/>
      <point x="314" y="-175" type="curve"/>
      <point x="314" y="-181" type="line"/>
      <point x="325" y="-192" type="line"/>
      <point x="394" y="-138"/>
      <point x="415" y="-92"/>
      <point x="415" y="12" type="curve"/>
      <point x="415" y="196" type="line"/>
      <point x="415" y="452" type="line"/>
      <point x="412" y="454" type="line"/>
      <point x="393" y="452" type="line"/>
      <point x="137" y="452" type="line"/>
      <point x="137" y="541" type="line" smooth="yes"/>
      <point x="137" y="641"/>
      <point x="179" y="685"/>
      <point x="273" y="685" type="curve" smooth="yes"/>
      <point x="317" y="685"/>
      <point x="351" y="678"/>
      <point x="385" y="662" type="curve"/>
      <point x="391" y="662" type="line"/>
      <point x="397" y="682" type="line"/>
      <point x="355" y="698"/>
      <point x="317" y="705"/>
      <point x="273" y="705" type="curve" smooth="yes"/>
    </contour>
  </outline>
</glyph>
